<svg width="48" height="48" viewBox="0 0 48 48" fill="none" xmlns="http://www.w3.org/2000/svg">
<path d="M40 40H8C6.93913 40 5.92172 39.5786 5.17157 38.8284C4.42143 38.0783 4 37.0609 4 36V11.826C4.04487 10.7956 4.48602 9.82232 5.23136 9.1094C5.97669 8.39648 6.9686 7.99902 8 8H40C41.0609 8 42.0783 8.42143 42.8284 9.17157C43.5786 9.92172 44 10.9391 44 12V36C44 37.0609 43.5786 38.0783 42.8284 38.8284C42.0783 39.5786 41.0609 40 40 40ZM8 15.736V36H40V15.736L24 26.4L8 15.736ZM9.6 12L24 21.6L38.4 12H9.6Z" fill="white"/>
</svg>
